# xmcd CD database file
#
# Track frame offsets:
#	150
#	16733
#	30346
#	46235
#	63400
#	76391
#	90805
#	111065
#	129386
#	141220
#	155514
#	172684
#	192914
#	211766
#	224597
#
# Disc length: 3220 seconds
#
# Revision: 0
# Processed by: cddbd v1.5.2PL0 Copyright (c) Steve Scherf et al.
# Submitted via: CDex 1.70beta2
#
DISCID=b60c920f
DTITLE=Various Artist - Big Bang Club
DYEAR=2010
DGENRE=Jazz
TTITLE0=Waldeck - Midsummer Night Blues
TTITLE1=G-Swing feat. Ania Chow - Sing Sing Sing
TTITLE2=Caravan Palace - Je M amuse
TTITLE3=Tape Five feat. Iain Mackenzie - A View To A Kill
TTITLE4=Nola Grey - Starlight (Radio Version)
TTITLE5=Ada Fijal and Louie Austen - Take Your Time
TTITLE6=Betina Bager and Brian O. - Singing In The Rain
TTITLE7=Fred Astaire - Puttin  On The Ritz (Club des Belugas Remix)
TTITLE8=Matt Kowalsky - Supertwarz
TTITLE9=Nina Simone - Gimme Some (Mike Mangini Remix)
TTITLE10=Les Baxter - Jungle Flower (Club des Belugas Remix)
TTITLE11=Bebo Best and The Super Lounge Orchestra - Anytime Swingers
TTITLE12=Parov Stelar - The Phantom (1930 Swing Version)
TTITLE13=Gramophonedzie - Why Don't You (Radio Edit)
TTITLE14=Jet Set Swe - Oxygene
EXTD=YEAR: 2010
EXTT0=
EXTT1=
EXTT2=
EXTT3=
EXTT4=
EXTT5=
EXTT6=
EXTT7=
EXTT8=
EXTT9=
EXTT10=
EXTT11=
EXTT12=
EXTT13=
EXTT14=
PLAYORDER=
